HIERARCHY
ROOT Hips
{
	OFFSET 0.00000 0.00000 0.00000
	CHANNELS 6 Xposition Yposition Zposition Zrotation Yrotation Xrotation 
	JOINT LHipJoint
	{
		OFFSET 0 0 0
		CHANNELS 3 Zrotation Yrotation Xrotation
		JOINT LeftUpLeg
		{
			OFFSET 1.62329 -1.80800 0.67318
			CHANNELS 3 Zrotation Yrotation Xrotation
			JOINT LeftLeg
			{
				OFFSET 2.57139 -7.06484 0.00000
				CHANNELS 3 Zrotation Yrotation Xrotation
				JOINT LeftFoot
				{
					OFFSET 2.52017 -6.92413 0.00000
					CHANNELS 3 Zrotation Yrotation Xrotation
					JOINT LeftToeBase
					{
						OFFSET 0.23295 -0.64001 2.10214
						CHANNELS 3 Zrotation Yrotation Xrotation
						End Site
						{
							OFFSET 0.00000 -0.00000 1.10139
						}
					}
				}
			}
		}
	}
	JOINT RHipJoint
	{
		OFFSET 0 0 0
		CHANNELS 3 Zrotation Yrotation Xrotation
		JOINT RightUpLeg
		{
			OFFSET -1.48061 -1.80800 0.67318
			CHANNELS 3 Zrotation Yrotation Xrotation
			JOINT RightLeg
			{
				OFFSET -2.63258 -7.23296 0.00000
				CHANNELS 3 Zrotation Yrotation Xrotation
				JOINT RightFoot
				{
					OFFSET -2.54779 -7.00000 0.00000
					CHANNELS 3 Zrotation Yrotation Xrotation
					JOINT RightToeBase
					{
						OFFSET -0.23067 -0.63376 2.12161
						CHANNELS 3 Zrotation Yrotation Xrotation
						End Site
						{
							OFFSET -0.00000 -0.00000 1.11000
						}
					}
				}
			}
		}
	}
	JOINT LowerBack
	{
		OFFSET 0 0 0
		CHANNELS 3 Zrotation Yrotation Xrotation
		JOINT Spine
		{
			OFFSET -0.02108 2.07573 -0.16981
			CHANNELS 3 Zrotation Yrotation Xrotation
			JOINT Spine1
			{
				OFFSET 0.05070 2.08439 -0.03141
				CHANNELS 3 Zrotation Yrotation Xrotation
				JOINT Neck
				{
					OFFSET 0 0 0
					CHANNELS 3 Zrotation Yrotation Xrotation
					JOINT Neck1
					{
						OFFSET -0.10731 1.60408 0.31370
						CHANNELS 3 Zrotation Yrotation Xrotation
						JOINT Head
						{
							OFFSET 0.08411 1.65679 -0.30822
							CHANNELS 3 Zrotation Yrotation Xrotation
							End Site
							{
								OFFSET 0.03911 1.69149 -0.14146
							}
						}
					}
				}
				JOINT LeftShoulder
				{
					OFFSET 0 0 0
					CHANNELS 3 Zrotation Yrotation Xrotation
					JOINT LeftArm
					{
						OFFSET 3.52315 0.73219 -0.54694
						CHANNELS 3 Zrotation Yrotation Xrotation
						JOINT LeftForeArm
						{
							OFFSET 5.32462 -0.00000 -0.00000
							CHANNELS 3 Zrotation Yrotation Xrotation
							JOINT LeftHand
							{
								OFFSET 3.48402 -0.00000 -0.00000
								CHANNELS 3 Zrotation Yrotation Xrotation
								JOINT LeftFingerBase
								{
									OFFSET 0 0 0
									CHANNELS 3 Zrotation Yrotation Xrotation
									JOINT LeftHandIndex1
									{
										OFFSET 0.57248 -0.00000 -0.00000
										CHANNELS 3 Zrotation Yrotation Xrotation
										End Site
										{
											OFFSET 0.46154 -0.00000 -0.00000
										}
									}
								}
								JOINT LThumb
								{
									OFFSET 0 0 0
									CHANNELS 3 Zrotation Yrotation Xrotation
									End Site
									{
										OFFSET 0.46859 -0.00000 0.46859
									}
								}
							}
						}
					}
				}
				JOINT RightShoulder
				{
					OFFSET 0 0 0
					CHANNELS 3 Zrotation Yrotation Xrotation
					JOINT RightArm
					{
						OFFSET -3.41766 0.93592 -0.10019
						CHANNELS 3 Zrotation Yrotation Xrotation
						JOINT RightForeArm
						{
							OFFSET -5.33589 -0.00000 -0.00000
							CHANNELS 3 Zrotation Yrotation Xrotation
							JOINT RightHand
							{
								OFFSET -3.64134 -0.00000 -0.00000
								CHANNELS 3 Zrotation Yrotation Xrotation
								JOINT RightFingerBase
								{
									OFFSET 0 0 0
									CHANNELS 3 Zrotation Yrotation Xrotation
									JOINT RightHandIndex1
									{
										OFFSET -0.73481 -0.00000 -0.00000
										CHANNELS 3 Zrotation Yrotation Xrotation
										End Site
										{
											OFFSET -0.59242 -0.00000 -0.00000
										}
									}
								}
								JOINT RThumb
								{
									OFFSET 0 0 0
									CHANNELS 3 Zrotation Yrotation Xrotation
									End Site
									{
										OFFSET -0.60147 -0.00000 0.60147
									}
								}
							}
						}
					}
				}
			}
		}
	}
}
MOTION
Frames: 7
Frame Time: .0083333
-0.6991 17.6671 -2.2434 0 0 0 0 0 0 -21 0 0 0 0 0 0 0 0 0 0 0 0 0 0 21 0 0 0 0 0 0 0 0 0 0 0 0 0 0 0 0 0 0 0 0 0 0 -16 0 0 21 0 0 11 0 0 0 -8 0 0 0 0 0 0 0 0 0 0 0 0 0 0 0 0 0 0 0 0 8 0 0 0 0 0 0 0 0 0 0 0 0 0 0 0 0 0
-0.6991 17.6671 -2.2434 1.2055 -6.4329 4.7029 0.0000 0.0000 0.0000 -19.2534 -2.7697 -8.7627 2.0952 9.0615 25.9880 0.8741 5.7438 -20.6478 1.2728 -7.1503 -20.1615 0.0000 0.0000 0.0000 11.7360 11.4615 -11.1582 -3.1011 -10.8570 31.7990 -1.1801 5.7205 -19.4345 -0.0247 -1.0137 2.7866 -4.2487 -1.0483 0.2036 1.7601 -1.4036 0.4124 4.1931 -0.7228 0.4564 -13.4704 -8.7809 -21.5241 7.9504 -9.7250 18.8956 3.4782 -4.5369 10.6966 0.0000 -0.0000 0.0000 -89.8093 2.0245 9.7114 14.3420 -23.2215 -2.9616 -0.0000 -0.0000 7.9256 8.8919 26.9447 4.0551 -7.1250 0.0000 -0.0000 -22.8036 55.7120 -6.2270 0.0000 -0.0000 0.0000 86.8005 2.0580 8.5607 -14.9854 24.1257 -3.2200 0.0000 0.0000 24.2214 -20.3149 1.2221 -0.4524 7.1250 -0.0000 -0.0000 4.8645 -28.6632 1.9415
-0.6977 17.6689 -2.2379 1.3385 -6.4267 4.7893 0.0000 0.0000 0.0000 -19.4055 -2.9053 -8.7667 2.0781 9.0269 25.8796 0.8694 5.7997 -20.6410 1.2448 -7.0742 -19.9355 0.0000 0.0000 0.0000 11.5619 11.4921 -11.2350 -3.1020 -10.8584 31.8038 -1.1839 5.7304 -19.4660 -0.0246 -1.0115 2.7806 -4.3962 -1.0586 0.1836 1.7675 -1.4176 0.3011 4.2851 -0.7257 0.3586 -13.6130 -8.6863 -21.5310 8.0281 -9.5741 19.0448 3.5573 -4.4706 10.7472 0.0000 -0.0000 0.0000 -89.9062 2.1371 9.5684 14.2736 -23.1244 -2.9347 -0.0000 -0.0000 8.3111 8.2578 27.3860 3.8193 -7.1250 0.0000 -0.0000 -23.7228 55.9899 -6.6621 0.0000 -0.0000 0.0000 86.7274 1.8189 8.6039 -15.0905 24.2721 -3.2631 0.0000 0.0000 23.9357 -20.2725 1.3157 -0.4859 7.1250 -0.0000 -0.0000 4.8935 -28.5639 1.9646
-0.6967 17.6702 -2.2345 1.3376 -6.4039 4.8543 0.0000 0.0000 0.0000 -19.3895 -2.8548 -8.8428 2.0663 9.0028 25.8041 0.8734 5.7060 -20.6146 1.2573 -7.1082 -20.0364 0.0000 0.0000 0.0000 11.5523 11.5283 -11.2896 -3.1075 -10.8670 31.8327 -1.1916 5.6974 -19.5333 -0.0223 -0.9645 2.6512 -4.4465 -1.0867 0.2619 1.8286 -1.4597 0.1941 4.3799 -0.7410 0.2119 -13.5794 -8.5267 -21.5723 7.8982 -9.3301 19.1691 3.5483 -4.3724 10.7621 0.0000 -0.0000 0.0000 -90.0353 2.2858 9.4509 14.2636 -23.1103 -2.9308 -0.0000 -0.0000 8.6660 7.7289 27.8501 3.6278 -7.1250 0.0000 -0.0000 -24.5635 56.3048 -7.1106 0.0000 -0.0000 0.0000 86.6632 1.6373 8.6528 -15.1635 24.3733 -3.2931 0.0000 0.0000 23.7712 -20.3438 1.3610 -0.5046 7.1250 -0.0000 -0.0000 4.8362 -28.5155 1.9471
-0.6960 17.6704 -2.2311 1.4714 -6.4370 4.8996 0.0000 0.0000 0.0000 -19.5502 -2.9174 -8.8422 2.0576 8.9851 25.7486 0.8730 5.7751 -20.6582 1.2493 -7.0864 -19.9716 0.0000 0.0000 0.0000 11.3869 11.6395 -11.3329 -3.1110 -10.8725 31.8512 -1.1986 5.6919 -19.5922 -0.0241 -1.0026 2.7561 -4.5944 -1.0753 0.3095 1.8194 -1.4476 0.1144 4.4561 -0.7306 0.1053 -13.4810 -8.4082 -21.7125 7.7114 -9.1389 19.3459 3.4966 -4.2980 10.8144 0.0000 -0.0000 0.0000 -90.1697 2.3987 9.2936 14.1762 -22.9861 -2.8966 -0.0000 -0.0000 8.6276 8.3135 26.9879 3.7938 -7.1250 0.0000 -0.0000 -23.4018 55.6380 -6.3606 0.0000 -0.0000 0.0000 86.6685 1.5339 8.5412 -15.1956 24.4179 -3.3064 0.0000 0.0000 23.6658 -20.4515 1.4138 -0.5272 7.1250 -0.0000 -0.0000 4.7506 -28.4587 1.9188
-0.6956 17.6708 -2.2282 1.4860 -6.4387 4.8869 0.0000 0.0000 0.0000 -19.5753 -2.9437 -8.7857 2.0545 8.9786 25.7285 0.8763 5.7930 -20.7011 1.2245 -7.0185 -19.7703 0.0000 0.0000 0.0000 11.3754 11.6664 -11.3151 -3.1120 -10.8742 31.8569 -1.1977 5.6659 -19.5859 -0.0240 -1.0004 2.7500 -4.6133 -1.0695 0.3788 1.8191 -1.4431 0.0948 4.4682 -0.7264 0.0463 -13.2357 -8.2780 -21.7536 7.4175 -8.9565 19.3465 3.3816 -4.2306 10.7720 0.0000 -0.0000 0.0000 -90.2396 2.4492 8.9913 14.1990 -23.0185 -2.9055 -0.0000 -0.0000 9.3195 7.7770 27.2508 3.5784 -7.1250 0.0000 -0.0000 -24.1044 55.7718 -6.6481 0.0000 -0.0000 0.0000 86.6652 1.4431 8.6307 -15.2498 24.4929 -3.3288 0.0000 0.0000 23.4726 -20.7331 1.2280 -0.4648 7.1250 -0.0000 -0.0000 4.5396 -28.6551 1.8119
-0.6954 17.6701 -2.2258 1.4055 -6.4548 4.9104 0.0000 0.0000 0.0000 -19.4820 -2.9094 -8.8050 2.0534 8.9764 25.7216 0.8802 5.7582 -20.7147 1.2164 -6.9960 -19.7035 0.0000 0.0000 0.0000 11.4694 11.7183 -11.3051 -3.1137 -10.8769 31.8657 -1.2016 5.6674 -19.6185 -0.0252 -1.0258 2.8198 -4.5375 -1.0635 0.4023 1.8469 -1.4358 0.0991 4.4547 -0.7225 0.0355 -13.1644 -8.1494 -21.8057 7.3647 -8.7778 19.3346 3.3817 -4.1490 10.7502 0.0000 -0.0000 0.0000 -90.2755 2.3724 8.6750 14.2042 -23.0259 -2.9075 -0.0000 -0.0000 10.1522 6.7114 28.1232 3.1748 -7.1250 0.0000 -0.0000 -25.7583 56.3452 -7.5152 0.0000 -0.0000 0.0000 86.6798 1.4154 8.6872 -15.3040 24.5679 -3.3513 0.0000 0.0000 23.3399 -20.7866 1.2411 -0.4711 7.1250 -0.0000 -0.0000 4.4975 -28.6408 1.7965
